# xmcd CD database file
#
# Track frame offsets:
#	150
#	17513
#	35850
#	54857
#	68606
#	93018
#	111715
#	138831
#	156480
#	174563
#	188892
#	206659
#	221165
#	239796
#	261861
#	275459
#	292441
#	316092
#
# Disc length: 4418 seconds
#
# Revision: 0
# Processed by: cddbd v1.5.2PL0 Copyright (c) Steve Scherf et al.
# Submitted via: CDex 1.70beta2
#
DISCID=1a114012
DTITLE=Various Artist - Spirits Music for the Soul 2012 Disc 1
DYEAR=2012
DGENRE=New Age
TTITLE0=Adiemus - Adiemus
TTITLE1=Enigma - Return To Innocence
TTITLE2=Lisa Gerrard - Now We Are Free
TTITLE3=Mike Oldfield - Etude
TTITLE4=Vangelis - Conquest Of Paradise
TTITLE5=Era - Ameno
TTITLE6=Loreena McKennitt - The Mummer's Dance
TTITLE7=Criara - Criara
TTITLE8=El Bosco - Nirvana
TTITLE9=Sacred Spirit - Yeha-Noha (Wishes Of Happiness And Prosperity)
TTITLE10=Sarah Brightman - Deliver Me
TTITLE11=Thomas Otten - Espiritu
TTITLE12=Deep Forest - Martha's Song
TTITLE13=Youssou N'dour ft. Neneh Cherry - 7 Seconds
TTITLE14=Celtic Spirit - Ta Muid
TTITLE15=Dreamcatcher - Seventh Heaven
TTITLE16=Dario G - Voices
TTITLE17=Chicane ft. Maire Brennan - Saltwater
EXTD=YEAR: 2012
EXTT0=
EXTT1=
EXTT2=
EXTT3=
EXTT4=
EXTT5=
EXTT6=
EXTT7=
EXTT8=
EXTT9=
EXTT10=
EXTT11=
EXTT12=
EXTT13=
EXTT14=
EXTT15=
EXTT16=
EXTT17=
PLAYORDER=
